{"title":"Onirica Field of Dogs (2014) 720p BDRip Lergendado PT-BR","uid":14038778,"size":4209917134,"categoryP":"video","categoryS":"hd___movies","magnet":"?xt=urn:btih:9aa4bcb354168b27e7381ca642a0b9b7c977b228&amp;dn=Onirica+Field+of+Dogs+%282014%29+720p+BDRip+Lergendado+PT-BR&amp;tr=udp%3A%2F%2Ftracker.leechers-paradise.org%3A6969&amp;tr=udp%3A%2F%2Fzer0day.ch%3A1337&amp;tr=udp%3A%2F%2Fopen.demonii.com%3A1337&amp;tr=udp%3A%2F%2Ftracker.coppersurfer.tk%3A6969&amp;tr=udp%3A%2F%2Fexodus.desync.com%3A6969","seeders":1,"leechers":0,"uploader":null,"files":1,"time":1459000811,"description":"Audio: Polish\r\nLegendas/Subtitles: Português/English (MKV track)\r\n\r\n=================================================\r\nFather ploughs a supermarket with oxen, the plough ripping the tiles. A forest full of dead and Niagara falling onto a cathedral altar. These are the visions of Adam, a poet who ha lost his beloved in a car crash. A national tragedy imposes on a personal one. It is 2010, a Biblical year for Poland with floods, fires, landslides and the catastrophe of the presidential plane being torn apart i mysterious circumstances along with the nations elite. Adam gives up his job as professor of literature to work at a supermarket checkout. Yet all he wants is to sleep, escaping from the painful reality.\r\n\r\n==================================================\r\nO pai ara o piso dum supermercado com touros rasgando os ladrilhos. Uma floresta cheia de cadáveres e uma catarata dentro duma catedral. Estas são as visões de Adam, um poeta que perdeu a amada e seu melhor amigo num acidente de carro. Uma tragédia nacional se impõe sobre a pessoal. É 2010, um ano bíblico para a Polônia com inundações, incêndios, deslizamentos e a catástrofe do avião presidencial destruído em circunstâncias misteriosas matando a elite nacional. Adam desiste do seu trabalho como professor de literatura e vai trabalhar como caixa de supermercado. Entretanto, tudo o que ele quer é dormir para escapar da dolorosa realidade.\r\n\r\n==================================================\r\n\r\nVideo\r\nID                             : 1\r\nFormat                         : AVC\r\nFormat/Info                    : Advanced Video Codec\r\nFormat profile                 :   \r\nFormat settings, CABAC         : Yes\r\nFormat settings, ReFrames      : 9 frames\r\nCodec ID                       : V_MPEG4/ISO/AVC\r\nDuration                       : 1h 43mn\r\nBit rate                       : 5 000 Kbps\r\nWidth                          : 1 280 pixels\r\nHeight                         : 692 pixels\r\nDisplay aspect ratio           : 1.85:1\r\nFrame rate mode                : Constant\r\nFrame rate                     : 24.000 fps\r\nColor space                    : YUV\r\nChroma subsampling             : 4:2:0\r\nBit depth                      : 8 bits\r\nScan type                      : Progressive\r\nBits/(Pixel*Frame)             : 0.235\r\nStream size                    : 3.52 GiB (90%)\r\n\r\n\r\nAudio\r\nID                             : 2\r\nFormat                         : AC-3\r\nFormat/Info                    : Audio Coding 3\r\nMode extension                 : CM (complete main)\r\nFormat settings, Endianness    : Big\r\nCodec ID                       : A_AC3\r\nDuration                       : 1h 43mn\r\nBit rate mode                  : Constant\r\nBit rate                       : 448 Kbps\r\nChannel(s)                     : 6 channels\r\nChannel positions              : Front: L C R, Side: L R, LFE\r\nSampling rate                  : 48.0 KHz\r\nBit depth                      : 16 bits\r\nCompression mode               : Lossy\r\nStream size                    : 330 MiB (8%)\r\nLanguage                       : English\r\nDefault                        : Yes\r\nForced                         : No\r\n\r\nText #1\r\nID                             : 3\r\nFormat                         : UTF-8\r\nCodec ID                       : S_TEXT/UTF8\r\nCodec ID/Info                  : UTF-8 Plain Text\r\nTitle                          : Portuguese\r\nLanguage                       : Portuguese\r\nDefault                        : Yes\r\nForced                         : No\r\n\r\nText #2\r\nID                             : 4\r\nFormat                         : UTF-8\r\nCodec ID                       : S_TEXT/UTF8\r\nCodec ID/Info                  : UTF-8 Plain Text\r\nTitle                          : English\r\nLanguage                       : English\r\nDefault                        : No\r\nForced                         : No","torrent":{"xt":"urn:btih:9aa4bcb354168b27e7381ca642a0b9b7c977b228","amp;dn":"Onirica+Field+of+Dogs+%282014%29+720p+BDRip+Lergendado+PT-BR","amp;tr":["udp%3A%2F%2Ftracker.leechers-paradise.org%3A6969","udp%3A%2F%2Fzer0day.ch%3A1337","udp%3A%2F%2Fopen.demonii.com%3A1337","udp%3A%2F%2Ftracker.coppersurfer.tk%3A6969","udp%3A%2F%2Fexodus.desync.com%3A6969"],"infoHash":"9aa4bcb354168b27e7381ca642a0b9b7c977b228","infoHashBuffer":{"type":"Buffer","data":[154,164,188,179,84,22,139,39,231,56,28,166,66,160,185,183,201,119,178,40]},"announce":[],"urlList":[]}}